<svg height="464pt" viewBox="-11 0 463 464" width="464pt" xmlns="http://www.w3.org/2000/svg"><path d="m400.5 240-24 32-72 40-104 8 40-24 56-56-24-32-72 48-120 48-32 160h112l16-80 136-32 80-48 48-64zm0 0" fill="#eecfb1"/><path d="m176.5 184h208v-184h-312v184zm0 0" fill="#2d8e43"/><path d="m88.5 16h280v152h-280zm0 0" fill="#6fb944"/><path d="m352.5 72v40c-10.617188-.03125-20.8125 4.171875-28.320312 11.679688-7.507813 7.507812-11.710938 17.703124-11.679688 28.320312h-168c0-22.089844-17.910156-40-40-40v-40c10.617188.03125 20.8125-4.171875 28.320312-11.679688 7.507813-7.507812 11.710938-17.703124 11.679688-28.320312h168c-.03125 10.617188 4.171875 20.8125 11.679688 28.320312 7.507812 7.507813 17.703124 11.710938 28.320312 11.679688zm-104 24c0-13.253906-10.746094-24-24-24s-24 10.746094-24 24 10.746094 24 24 24 24-10.746094 24-24zm0 0" fill="#2d8e43"/><path d="m248.5 96c0 13.253906-10.746094 24-24 24s-24-10.746094-24-24 10.746094-24 24-24 24 10.746094 24 24zm0 0" fill="#6fb944"/><path d="m16.5 392 156-1.335938-12 73.335938h-160zm0 0" fill="#005e9c"/></svg>