<?xml version="1.0" encoding="iso-8859-1"?>
<!-- Generator: Adobe Illustrator 19.0.0, SVG Export Plug-In . SVG Version: 6.00 Build 0)  -->
<svg version="1.1" id="Capa_1" xmlns="http://www.w3.org/2000/svg" xmlns:xlink="http://www.w3.org/1999/xlink" x="0px" y="0px"
	 viewBox="0 0 512 512" style="enable-background:new 0 0 512 512;" xml:space="preserve">
<g>
	<path style="fill:#FFAB1D;" d="M222,271h-70c-8.284,0-15-6.716-15-15s6.716-15,15-15h70c8.284,0,15,6.716,15,15
		S230.284,271,222,271z"/>
	<path style="fill:#FFAB1D;" d="M85,271H15c-8.284,0-15-6.716-15-15s6.716-15,15-15h70c8.284,0,15,6.716,15,15S93.284,271,85,271z"
		/>
</g>
<g>
	<path style="fill:#FFF54F;" d="M445.339,170.598l-36.842-120C406.563,44.299,400.746,40,394.158,40H117.842
		c-6.588,0-12.406,4.299-14.339,10.598l-36.842,120c-1.396,4.549-0.552,9.491,2.276,13.317C71.765,187.742,76.241,190,81,190h350
		c4.759,0,9.235-2.258,12.063-6.085C445.891,180.088,446.736,175.146,445.339,170.598z"/>
	<path style="fill:#FFF54F;" d="M443.063,328.085C440.235,324.258,435.759,322,431,322H81c-4.759,0-9.235,2.258-12.063,6.085
		s-3.673,8.769-2.276,13.317l36.842,120C105.437,467.7,111.254,472,117.842,472h276.315c6.588,0,12.406-4.299,14.339-10.598
		l36.842-120C446.736,336.854,445.891,331.912,443.063,328.085z"/>
</g>
<g>
	<path style="fill:#FF9810;" d="M497,271h-70c-8.284,0-15-6.716-15-15s6.716-15,15-15h70c8.284,0,15,6.716,15,15
		S505.284,271,497,271z"/>
	<path style="fill:#FF9810;" d="M360,271h-70c-8.284,0-15-6.716-15-15s6.716-15,15-15h70c8.284,0,15,6.716,15,15
		S368.284,271,360,271z"/>
</g>
<g>
	<path style="fill:#FFDD3E;" d="M445.339,170.598l-36.842-120C406.563,44.299,400.746,40,394.158,40H256v150h175
		c4.759,0,9.235-2.258,12.063-6.085C445.891,180.088,446.736,175.146,445.339,170.598z"/>
	<path style="fill:#FFDD3E;" d="M443.063,328.085C440.235,324.258,435.759,322,431,322H256v150h138.158
		c6.588,0,12.406-4.299,14.339-10.598l36.842-120C446.736,336.854,445.891,331.912,443.063,328.085z"/>
</g>
<g>
</g>
<g>
</g>
<g>
</g>
<g>
</g>
<g>
</g>
<g>
</g>
<g>
</g>
<g>
</g>
<g>
</g>
<g>
</g>
<g>
</g>
<g>
</g>
<g>
</g>
<g>
</g>
<g>
</g>
</svg>
