<?xml version="1.0" encoding="iso-8859-1"?>
<!-- Generator: Adobe Illustrator 19.0.0, SVG Export Plug-In . SVG Version: 6.00 Build 0)  -->
<svg version="1.1" id="Capa_1" xmlns="http://www.w3.org/2000/svg" xmlns:xlink="http://www.w3.org/1999/xlink" x="0px" y="0px"
	 viewBox="0 0 512 512" style="enable-background:new 0 0 512 512;" xml:space="preserve">
<g>
	<path style="fill:#FFAB1D;" d="M256,100c-8.284,0-15-6.716-15-15V15c0-8.284,6.716-15,15-15s15,6.716,15,15v70
		C271,93.284,264.284,100,256,100z"/>
	<path style="fill:#FFAB1D;" d="M256,237c-8.284,0-15-6.716-15-15v-70c0-8.284,6.716-15,15-15s15,6.716,15,15v70
		C271,230.284,264.284,237,256,237z"/>
	<path style="fill:#FFAB1D;" d="M256,375c-8.284,0-15-6.716-15-15v-70c0-8.284,6.716-15,15-15s15,6.716,15,15v70
		C271,368.284,264.284,375,256,375z"/>
	<path style="fill:#FFAB1D;" d="M256,512c-8.284,0-15-6.716-15-15v-70c0-8.284,6.716-15,15-15s15,6.716,15,15v70
		C271,505.284,264.284,512,256,512z"/>
</g>
<path style="fill:#FFF54F;" d="M179.402,103.503l-120-36.842c-4.55-1.398-9.491-0.552-13.317,2.276C42.258,71.765,40,76.241,40,81
	v350c0,4.759,2.258,9.235,6.085,12.063c3.841,2.839,8.787,3.668,13.317,2.276l120-36.842C185.7,406.563,190,400.746,190,394.158
	V117.842C190,111.254,185.701,105.437,179.402,103.503z"/>
<g>
	<path style="fill:#FF9810;" d="M256,0v100c8.284,0,15-6.716,15-15V15C271,6.716,264.284,0,256,0z"/>
	<path style="fill:#FF9810;" d="M256,137v100c8.284,0,15-6.716,15-15v-70C271,143.716,264.284,137,256,137z"/>
	<path style="fill:#FF9810;" d="M256,275v100c8.284,0,15-6.716,15-15v-70C271,281.716,264.284,275,256,275z"/>
	<path style="fill:#FF9810;" d="M256,412v100c8.284,0,15-6.716,15-15v-70C271,418.716,264.284,412,256,412z"/>
</g>
<path style="fill:#FFDD3E;" d="M465.915,68.937c-3.827-2.828-8.77-3.674-13.317-2.276l-120,36.842
	C326.3,105.437,322,111.254,322,117.842v276.315c0,6.588,4.299,12.406,10.598,14.339l120,36.842
	c4.566,1.402,9.506,0.541,13.317-2.276C469.742,440.235,472,435.759,472,431V81C472,76.241,469.742,71.765,465.915,68.937z"/>
<g>
</g>
<g>
</g>
<g>
</g>
<g>
</g>
<g>
</g>
<g>
</g>
<g>
</g>
<g>
</g>
<g>
</g>
<g>
</g>
<g>
</g>
<g>
</g>
<g>
</g>
<g>
</g>
<g>
</g>
</svg>
