<svg height="512pt" viewBox="0 0 512 512.00048" width="512pt" xmlns="http://www.w3.org/2000/svg"><path d="m508 473.367188h-252v-434.734376h252c2.210938 0 4 1.789063 4 4v426.734376c0 2.210937-1.789062 4-4 4zm0 0" fill="#e6e6e6"/><path d="m481.09375 38.632812v434.734376h26.90625c2.210938 0 4-1.789063 4-4v-426.734376c0-2.210937-1.789062-4-4-4zm0 0" fill="#d4d4d4"/><path d="m256 473.367188h-252c-2.207031 0-4-1.789063-4-4v-426.734376c0-2.210937 1.792969-4 4-4h252zm0 0" fill="#f5f5f5"/><g fill="#42a5f5"><path d="m30.90625 236.546875v-163.011719c0-2.207031 1.789062-4 4-4h186.1875c2.210938 0 4 1.792969 4 4v163.011719c0 2.207031-1.789062 4-4 4h-186.1875c-2.210938 0-4-1.792969-4-4zm0 0"/><path d="m86.25 293.671875h138.84375c4.140625 0 7.5-3.355469 7.5-7.5 0-4.140625-3.359375-7.5-7.5-7.5h-138.84375c-4.140625 0-7.5 3.359375-7.5 7.5 0 4.144531 3.359375 7.5 7.5 7.5zm0 0"/><path d="m225.09375 310.625h-194.1875c-4.140625 0-7.5 3.359375-7.5 7.5 0 4.144531 3.359375 7.5 7.5 7.5h194.1875c4.144531 0 7.5-3.355469 7.5-7.5 0-4.140625-3.355469-7.5-7.5-7.5zm0 0"/><path d="m225.09375 342.582031h-194.1875c-4.140625 0-7.5 3.359375-7.5 7.5 0 4.144531 3.359375 7.5 7.5 7.5h194.1875c4.144531 0 7.5-3.355469 7.5-7.5 0-4.140625-3.355469-7.5-7.5-7.5zm0 0"/><path d="m225.09375 374.535156h-194.1875c-4.140625 0-7.5 3.359375-7.5 7.5 0 4.144532 3.359375 7.5 7.5 7.5h194.1875c4.144531 0 7.5-3.355468 7.5-7.5 0-4.140625-3.355469-7.5-7.5-7.5zm0 0"/><path d="m175.9375 406.492188h-145.03125c-4.140625 0-7.5 3.359374-7.5 7.5 0 4.140624 3.359375 7.5 7.5 7.5h145.03125c4.144531 0 7.5-3.359376 7.5-7.5 0-4.140626-3.355469-7.5-7.5-7.5zm0 0"/><path d="m302.054688 84.25h169.140624c4.144532 0 7.5-3.359375 7.5-7.5 0-4.144531-3.355468-7.5-7.5-7.5h-169.140624c-4.144532 0-7.5 3.355469-7.5 7.5 0 4.140625 3.355468 7.5 7.5 7.5zm0 0"/><path d="m471.195312 110.691406h-169.140624c-4.144532 0-7.5 3.355469-7.5 7.5 0 4.140625 3.355468 7.5 7.5 7.5h169.140624c4.144532 0 7.5-3.359375 7.5-7.5 0-4.144531-3.355468-7.5-7.5-7.5zm0 0"/><path d="m471.195312 152.128906h-169.140624c-4.144532 0-7.5 3.359375-7.5 7.5 0 4.144532 3.355468 7.5 7.5 7.5h169.140624c4.144532 0 7.5-3.355468 7.5-7.5 0-4.140625-3.355468-7.5-7.5-7.5zm0 0"/><path d="m391.148438 193.574219h-89.09375c-4.144532 0-7.5 3.355469-7.5 7.5 0 4.140625 3.355468 7.5 7.5 7.5h89.09375c4.140624 0 7.5-3.359375 7.5-7.5 0-4.144531-3.359376-7.5-7.5-7.5zm0 0"/></g><path d="m359.320312 303.386719h-53.8125c-2.207031 0-4-1.789063-4-4v-53.808594c0-2.210937 1.792969-4 4-4h53.8125c2.207032 0 4 1.789063 4 4v53.808594c0 2.210937-1.792968 4-4 4zm0 0" fill="#ff5622"/><path d="m460.515625 405.703125h-53.808594c-2.210937 0-4-1.789063-4-4v-156.125c0-2.210937 1.789063-4 4-4h53.808594c2.210937 0 4 1.789063 4 4v156.125c0 2.210937-1.789063 4-4 4zm0 0" fill="#ffca28"/><path d="m359.320312 405.703125h-53.8125c-2.207031 0-4-1.789063-4-4v-53.808594c0-2.210937 1.792969-4 4-4h53.8125c2.207032 0 4 1.789063 4 4v53.808594c0 2.210937-1.792968 4-4 4zm0 0" fill="#ff5622"/><path d="m256 38.632812 52.488281-38.273437c1.328125-.917969 3.140625.03125 3.140625 1.644531v507.992188c0 1.617187-1.8125 2.566406-3.140625 1.644531l-52.488281-38.273437zm0 0" fill="#d4d4d4"/></svg>