<?xml version="1.0" encoding="iso-8859-1"?>
<!-- Generator: Adobe Illustrator 21.0.0, SVG Export Plug-In . SVG Version: 6.00 Build 0)  -->
<svg xmlns="http://www.w3.org/2000/svg" xmlns:xlink="http://www.w3.org/1999/xlink" version="1.1" id="Capa_1" x="0px" y="0px" viewBox="0 0 512 512" style="enable-background:new 0 0 512 512;" xml:space="preserve" width="512" height="512">
<g>
	<path style="fill:#DEECF1;" d="M391,30v72.4c0,27.599-6.599,54.3-19.2,78.6l-62.1,30H206.201l-66-30   c-12.601-24.3-19.2-51-19.2-78.6V30c0-8.401,6.599-15,15-15h240C384.401,15,391,21.599,391,30z"/>
	<path style="fill:#C5D3DD;" d="M391,30v72.4c0,27.599-6.599,54.3-19.2,78.6l-62.1,30H256V15h120C384.401,15,391,21.599,391,30z"/>
	<path style="fill:#FDBF00;" d="M371.8,181c-14.399,29.399-40.199,57.299-74.099,75L259.3,286l-3.3-2.1L214.9,256   c-34.2-18.001-60.901-46.201-74.7-75H371.8z"/>
	<path style="fill:#FF9100;" d="M259.3,286l-3.3-2.1V181h115.8c-14.399,29.399-40.199,57.299-74.099,75L259.3,286z"/>
	<path style="fill:#DEECF1;" d="M391,409.6V482c0,8.399-6.599,15-15,15H136c-8.401,0-15-6.601-15-15v-72.4   c0-66,37.5-124.2,93.9-153.6h82.8c-0.3,0-0.3,0.3-0.601,0.3c22.2,11.4,42.001,26.999,57.001,46.5   C378.401,333.699,391,370.6,391,409.6z"/>
	<path style="fill:#C5D3DD;" d="M354.101,302.8C378.401,333.699,391,370.6,391,409.6V482c0,8.399-6.599,15-15,15H256V256h41.7   c-0.3,0-0.3,0.3-0.601,0.3C319.3,267.7,339.101,283.299,354.101,302.8z"/>
	<g>
		<g>
			<g>
				<path style="fill:#FDBF00;" d="M271,226v150c0,8.399-6.599,15-15,15s-15-6.601-15-15V226c0-8.401,6.599-15,15-15      S271,217.599,271,226z"/>
			</g>
		</g>
	</g>
	<path style="fill:#FF9100;" d="M256,391V211c8.401,0,15,6.599,15,15v150C271,384.399,264.401,391,256,391z"/>
	<g>
		<g>
			<path style="fill:#FDBF00;" d="M181,497v-61c0-41.045,22.69-51.694,48.984-64.028c9.696-4.551,10.129-4.801,19.307-9.39     c4.219-2.109,9.199-2.109,13.418,0c9.164,4.582,9.593,4.831,19.307,9.39C308.31,384.306,331,394.955,331,436v61H181z"/>
		</g>
	</g>
	<path style="fill:#FF9100;" d="M331,497v-61c0-41.045-22.69-51.694-48.984-64.028c-9.714-4.559-10.144-4.808-19.307-9.39   C260.6,361.527,258.3,361,256,361v136H331z"/>
	<g>
		<path style="fill:#537983;" d="M451,497c0,8.399-6.599,15-15,15H76c-8.401,0-15-6.601-15-15c0-8.401,6.599-15,15-15h360    C444.401,482,451,488.599,451,497z"/>
	</g>
	<g>
		<path style="fill:#537983;" d="M451,15c0,8.399-6.599,15-15,15H76c-8.401,0-15-6.601-15-15c0-8.401,6.599-15,15-15h360    C444.401,0,451,6.599,451,15z"/>
	</g>
	<path style="fill:#3E5959;" d="M451,497c0,8.399-6.599,15-15,15H256v-30h180C444.401,482,451,488.599,451,497z"/>
	<path style="fill:#3E5959;" d="M451,15c0,8.399-6.599,15-15,15H256V0h180C444.401,0,451,6.599,451,15z"/>
</g>















</svg>
