<svg height="512pt" viewBox="0 0 512 512" width="512pt" xmlns="http://www.w3.org/2000/svg"><path d="m0 422h90v90h-90zm0 0" fill="#0f9af0"/><path d="m512 422h-256l-30 45 30 45h256zm0 0" fill="#0f9af0"/><path d="m120 422h136v90h-136zm0 0" fill="#13bdf7"/><path d="m0 281.332031h90v90h-90zm0 0" fill="#0f9af0"/><path d="m512 281.332031h-256l-30 45 30 45h256zm0 0" fill="#0f9af0"/><path d="m120 281.332031h136v90h-136zm0 0" fill="#13bdf7"/><path d="m0 140.667969h90v90h-90zm0 0" fill="#0f9af0"/><path d="m512 140.667969h-256l-30 45 30 45h256zm0 0" fill="#0f9af0"/><path d="m120 140.667969h136v90h-136zm0 0" fill="#13bdf7"/><path d="m0 0h90v90h-90zm0 0" fill="#0f9af0"/><path d="m512 0h-256l-30 45 30 45h256zm0 0" fill="#0f9af0"/><path d="m120 0h136v90h-136zm0 0" fill="#13bdf7"/></svg>