<?xml version="1.0" encoding="iso-8859-1"?>
<!-- Generator: Adobe Illustrator 19.0.0, SVG Export Plug-In . SVG Version: 6.00 Build 0)  -->
<svg version="1.1" id="Layer_1" xmlns="http://www.w3.org/2000/svg" xmlns:xlink="http://www.w3.org/1999/xlink" x="0px" y="0px"
	 viewBox="0 0 491.52 491.52" style="enable-background:new 0 0 491.52 491.52;" xml:space="preserve">
<circle style="fill:#FCD462;" cx="245.76" cy="74.547" r="74.542"/>
<circle style="fill:#F6C358;" cx="245.76" cy="74.547" r="62.106"/>
<path style="fill:#DC8744;" d="M243.198,122.877v-8.512c-10.656-1.087-20.221-5.323-28.686-12.706l8.512-10.144
	c6.529,5.675,13.247,9.053,20.174,10.144V79.037c-8.787-2.097-15.221-4.858-19.301-8.279c-4.08-3.421-6.121-8.493-6.121-15.216
	s2.344-12.222,7.05-16.502c4.707-4.275,10.827-6.604,18.371-6.994v-5.831h7.458v5.945c8.55,0.626,16.635,3.539,24.254,8.749
	l-7.582,10.728c-5.134-3.653-10.685-5.907-16.672-6.766v21.92h0.351c8.939,2.102,15.505,4.939,19.7,8.512
	c4.204,3.577,6.301,8.768,6.301,15.567c0,6.804-2.41,12.345-7.231,16.616c-4.82,4.28-11.188,6.609-19.121,6.998v8.393H243.198z
	 M234.971,47.614c-1.983,1.746-2.97,3.924-2.97,6.529c0,2.605,0.778,4.664,2.334,6.177c1.547,1.518,4.507,2.975,8.863,4.375V44.52
	C239.696,44.833,236.954,45.863,234.971,47.614z M259.519,98.741c2.173-1.784,3.264-4.038,3.264-6.761
	c0-2.719-0.854-4.877-2.562-6.472c-1.718-1.594-4.906-3.089-9.565-4.488v20.985C254.386,101.621,257.337,100.53,259.519,98.741z"/>
<circle style="fill:#2D93BA;" cx="388.398" cy="192.998" r="74.542"/>
<circle style="fill:#27A2DB;" cx="388.398" cy="192.998" r="62.106"/>
<path style="fill:#2D93BA;" d="M385.837,241.331v-8.512c-10.656-1.087-20.221-5.323-28.686-12.706l8.512-10.144
	c6.529,5.675,13.247,9.053,20.174,10.144v-22.622c-8.787-2.097-15.221-4.858-19.301-8.279c-4.08-3.421-6.121-8.493-6.121-15.216
	s2.344-12.222,7.05-16.502c4.707-4.275,10.827-6.604,18.371-6.994v-5.831h7.458v5.945c8.55,0.626,16.635,3.539,24.254,8.749
	l-7.582,10.728c-5.134-3.653-10.685-5.907-16.672-6.766v21.92h0.351c8.939,2.102,15.505,4.939,19.7,8.512
	c4.204,3.577,6.301,8.768,6.301,15.567c0,6.804-2.41,12.345-7.231,16.616c-4.82,4.28-11.188,6.609-19.121,6.998v8.393H385.837z
	 M377.61,166.067c-1.983,1.746-2.97,3.924-2.97,6.529c0,2.605,0.778,4.664,2.334,6.177c1.547,1.518,4.507,2.975,8.863,4.375v-20.174
	C382.336,163.287,379.594,164.317,377.61,166.067z M402.159,217.195c2.173-1.784,3.264-4.038,3.264-6.761
	c0-2.719-0.854-4.877-2.562-6.472c-1.718-1.594-4.906-3.089-9.565-4.488v20.985C397.025,220.075,399.976,218.984,402.159,217.195z"
	/>
<path style="fill:#F6C358;" d="M212.626,335.771c30.637,27.446,75.361,31.216,101.628,30.701
	c12.596-0.247,23.398-8.913,26.559-21.109l0,0c3.777-14.572-4.571-29.538-18.955-33.98l-118.94-36.732
	c-7.942-2.453-16.469-2.231-24.273,0.63l-73.867,27.085v149.843H276.61c8.69,0,17.189-2.554,24.439-7.346l176.976-116.958
	c16.099-10.639,18.155-33.471,4.217-46.816l0,0c-10.284-9.846-26.063-11.133-37.806-3.082l-105.446,72.288"/>
<defs>
	<filter id="Adobe_OpacityMaskFilter" filterUnits="userSpaceOnUse" x="206.569" y="333.511" width="136.071" height="38.946">
		<feColorMatrix  type="matrix" values="1 0 0 0 0  0 1 0 0 0  0 0 1 0 0  0 0 0 1 0"/>
	</filter>
</defs>
<mask maskUnits="userSpaceOnUse" x="206.569" y="333.511" width="136.071" height="38.946" id="SVGID_2_">
</mask>
<g style="mask:url(#SVGID_2_);">
	<path style="fill:#DC8744;stroke:#DC8744;stroke-miterlimit:10;" d="M307.393,371.956c-25.97,0-69.76-4.569-100.118-31.769
		l5.36-5.971c30.06,26.902,74.822,30.107,98.864,29.676c10.689-0.212,20.046-7.656,22.757-18.11l7.774,2.022
		c-3.62,13.91-16.112,23.831-30.374,24.113C310.293,371.941,308.882,371.956,307.393,371.956z"/>
</g>
<path style="fill:#F6C358;" d="M212.626,335.771c30.637,27.446,75.361,31.216,101.628,30.701
	c12.596-0.247,23.398-8.913,26.559-21.109l0,0c3.777-14.572-4.571-29.538-18.955-33.98l-118.94-36.732
	c-7.942-2.453-16.469-2.231-24.273,0.63l-73.867,27.085"/>
<rect y="272.952" style="fill:#44C4A1;" width="113.562" height="218.563"/>
<circle style="fill:#EBF0F3;" cx="56.781" cy="450.258" r="19.604"/>
<g>
</g>
<g>
</g>
<g>
</g>
<g>
</g>
<g>
</g>
<g>
</g>
<g>
</g>
<g>
</g>
<g>
</g>
<g>
</g>
<g>
</g>
<g>
</g>
<g>
</g>
<g>
</g>
<g>
</g>
</svg>
