<?xml version="1.0" encoding="iso-8859-1"?>
<!-- Generator: Adobe Illustrator 18.0.0, SVG Export Plug-In . SVG Version: 6.00 Build 0)  -->
<!DOCTYPE svg PUBLIC "-//W3C//DTD SVG 1.1//EN" "http://www.w3.org/Graphics/SVG/1.1/DTD/svg11.dtd">
<svg version="1.1" id="Capa_1" xmlns="http://www.w3.org/2000/svg" xmlns:xlink="http://www.w3.org/1999/xlink" x="0px" y="0px"
	 viewBox="0 0 60 60" style="enable-background:new 0 0 60 60;" xml:space="preserve">
<g>
	<path style="fill:#AFB6BB;" d="M6.001,17c-0.305,0-0.604-0.138-0.801-0.4c-0.332-0.442-0.242-1.069,0.2-1.4l4-3
		c0.44-0.333,1.068-0.243,1.399,0.2c0.332,0.442,0.242,1.069-0.2,1.4l-4,3C6.42,16.935,6.21,17,6.001,17z"/>
	<path style="fill:#AFB6BB;" d="M6,17c-0.212,0-0.424-0.068-0.6-0.2l-4-3c-0.442-0.331-0.532-0.958-0.2-1.4
		c0.332-0.441,0.959-0.532,1.399-0.2L5,14C5,6.28,11.28,0,19,0c0.553,0,1,0.448,1,1s-0.447,1-1,1C12.383,2,7,7.383,7,14v2
		c0,0.379-0.214,0.725-0.553,0.895C6.306,16.965,6.152,17,6,17z"/>
	<path style="fill:#AFB6BB;" d="M51.001,48c-0.305,0-0.604-0.138-0.801-0.4c-0.332-0.442-0.242-1.069,0.2-1.4l4-3
		c0.44-0.333,1.067-0.242,1.399,0.2c0.332,0.442,0.242,1.069-0.2,1.4l-4,3C51.42,47.935,51.21,48,51.001,48z"/>
	<path style="fill:#AFB6BB;" d="M42,60c-0.553,0-1-0.448-1-1s0.447-1,1-1c6.617,0,12-5.383,12-12v-2
		c0-0.379,0.214-0.725,0.553-0.895c0.338-0.169,0.744-0.133,1.047,0.095l4,3c0.442,0.331,0.532,0.958,0.2,1.4
		c-0.33,0.442-0.957,0.533-1.399,0.2L56,46C56,53.72,49.72,60,42,60z"/>
	<g>
		<path style="fill:#556080;" d="M19,60c-0.26,0-0.521-0.11-0.71-0.29C18.109,59.52,18,59.26,18,59c0-0.26,0.109-0.52,0.29-0.71
			c0.37-0.37,1.05-0.37,1.42,0C19.89,58.48,20,58.74,20,59c0,0.26-0.101,0.52-0.29,0.71C19.52,59.89,19.27,60,19,60z"/>
		<path style="fill:#556080;" d="M18,55.13c0-0.55,0.45-1,1-1l0,0c0.55,0,1,0.45,1,1l0,0c0,0.56-0.45,1-1,1l0,0
			C18.45,56.13,18,55.69,18,55.13z M18,51.27c0-0.56,0.45-1,1-1l0,0c0.55,0,1,0.44,1,1l0,0c0,0.55-0.45,1-1,1l0,0
			C18.45,52.27,18,51.82,18,51.27z M18,47.4c0-0.55,0.45-1,1-1l0,0c0.55,0,1,0.45,1,1l0,0c0,0.55-0.45,1-1,1l0,0
			C18.45,48.4,18,47.95,18,47.4z M18,43.53c0-0.55,0.45-1,1-1l0,0c0.55,0,1,0.45,1,1l0,0c0,0.56-0.45,1-1,1l0,0
			C18.45,44.53,18,44.09,18,43.53z M18,39.67c0-0.56,0.45-1,1-1l0,0c0.55,0,1,0.44,1,1l0,0c0,0.55-0.45,1-1,1l0,0
			C18.45,40.67,18,40.22,18,39.67z M18,35.8c0-0.55,0.45-1,1-1l0,0c0.55,0,1,0.45,1,1l0,0c0,0.55-0.45,1-1,1l0,0
			C18.45,36.8,18,36.35,18,35.8z M18,31.93c0-0.55,0.45-1,1-1l0,0c0.55,0,1,0.45,1,1l0,0c0,0.56-0.45,1-1,1l0,0
			C18.45,32.93,18,32.49,18,31.93z M18,28.07c0-0.56,0.45-1,1-1l0,0c0.55,0,1,0.44,1,1l0,0c0,0.55-0.45,1-1,1l0,0
			C18.45,29.07,18,28.62,18,28.07z M18,24.2c0-0.55,0.45-1,1-1l0,0c0.55,0,1,0.45,1,1l0,0c0,0.55-0.45,1-1,1l0,0
			C18.45,25.2,18,24.75,18,24.2z M18,20.33c0-0.55,0.45-1,1-1l0,0c0.55,0,1,0.45,1,1l0,0c0,0.56-0.45,1-1,1l0,0
			C18.45,21.33,18,20.89,18,20.33z M18,16.47c0-0.56,0.45-1,1-1l0,0c0.55,0,1,0.44,1,1l0,0c0,0.55-0.45,1-1,1l0,0
			C18.45,17.47,18,17.02,18,16.47z M18,12.6c0-0.55,0.45-1,1-1l0,0c0.55,0,1,0.45,1,1l0,0c0,0.55-0.45,1-1,1l0,0
			C18.45,13.6,18,13.15,18,12.6z M18,8.73c0-0.55,0.45-1,1-1l0,0c0.55,0,1,0.45,1,1l0,0c0,0.56-0.45,1-1,1l0,0
			C18.45,9.73,18,9.29,18,8.73z M18,4.87c0-0.56,0.45-1,1-1l0,0c0.55,0,1,0.44,1,1l0,0c0,0.55-0.45,1-1,1l0,0
			C18.45,5.87,18,5.42,18,4.87z"/>
		<path style="fill:#556080;" d="M19,2c-0.26,0-0.521-0.11-0.71-0.29C18.109,1.52,18,1.26,18,1c0-0.26,0.109-0.52,0.29-0.71
			c0.37-0.37,1.05-0.37,1.42,0C19.89,0.48,20,0.74,20,1c0,0.26-0.101,0.52-0.29,0.71C19.52,1.89,19.27,2,19,2z"/>
		<path style="fill:#556080;" d="M36.439,1c0-0.55,0.44-1,1-1l0,0c0.551,0,1,0.45,1,1l0,0c0,0.55-0.449,1-1,1l0,0
			C36.88,2,36.439,1.55,36.439,1z M32.75,1c0-0.55,0.45-1,1-1l0,0c0.55,0,1,0.45,1,1l0,0c0,0.55-0.45,1-1,1l0,0
			C33.2,2,32.75,1.55,32.75,1z M29.06,1c0-0.55,0.45-1,1-1l0,0c0.55,0,1,0.45,1,1l0,0c0,0.55-0.45,1-1,1l0,0
			C29.51,2,29.06,1.55,29.06,1z M25.37,1c0-0.55,0.449-1,1-1l0,0c0.56,0,1,0.45,1,1l0,0c0,0.55-0.44,1-1,1l0,0
			C25.819,2,25.37,1.55,25.37,1z M21.689,1c0-0.55,0.45-1,1-1l0,0c0.551,0,1,0.45,1,1l0,0c0,0.55-0.449,1-1,1l0,0
			C22.14,2,21.689,1.55,21.689,1z"/>
		<path style="fill:#556080;" d="M41.13,2c-0.271,0-0.53-0.11-0.71-0.29c-0.19-0.19-0.3-0.45-0.3-0.71c0-0.26,0.109-0.52,0.3-0.71
			c0.37-0.37,1.04-0.37,1.41,0C42.02,0.48,42.12,0.74,42.12,1c0,0.26-0.101,0.52-0.29,0.71C41.649,1.89,41.39,2,41.13,2z"/>
		<path style="fill:#556080;" d="M40.12,55.13c0-0.55,0.449-1,1-1l0,0c0.56,0,1.01,0.45,1.01,1l0,0c0,0.56-0.45,1-1.01,1l0,0
			C40.569,56.13,40.12,55.69,40.12,55.13z M40.12,51.27c0-0.56,0.449-1,1-1l0,0c0.56,0,1.01,0.44,1.01,1l0,0c0,0.55-0.45,1-1.01,1
			l0,0C40.569,52.27,40.12,51.82,40.12,51.27z M40.12,47.4c0-0.55,0.449-1,1-1l0,0c0.56,0,1.01,0.45,1.01,1l0,0
			c0,0.55-0.45,1-1.01,1l0,0C40.569,48.4,40.12,47.95,40.12,47.4z M40.12,43.53c0-0.55,0.449-1,1-1l0,0c0.56,0,1.01,0.45,1.01,1l0,0
			c0,0.56-0.45,1-1.01,1l0,0C40.569,44.53,40.12,44.09,40.12,43.53z M40.12,39.67c0-0.56,0.449-1,1-1l0,0c0.56,0,1.01,0.44,1.01,1
			l0,0c0,0.55-0.45,1-1.01,1l0,0C40.569,40.67,40.12,40.22,40.12,39.67z M40.12,35.8c0-0.55,0.449-1,1-1l0,0
			c0.56,0,1.01,0.45,1.01,1l0,0c0,0.55-0.45,1-1.01,1l0,0C40.569,36.8,40.12,36.35,40.12,35.8z M40.12,31.93c0-0.55,0.449-1,1-1l0,0
			c0.56,0,1.01,0.45,1.01,1l0,0c0,0.56-0.45,1-1.01,1l0,0C40.569,32.93,40.12,32.49,40.12,31.93z M40.12,28.07c0-0.56,0.449-1,1-1
			l0,0c0.56,0,1.01,0.44,1.01,1l0,0c0,0.55-0.45,1-1.01,1l0,0C40.569,29.07,40.12,28.62,40.12,28.07z M40.12,24.2
			c0-0.55,0.449-1,1-1l0,0c0.56,0,1.01,0.45,1.01,1l0,0c0,0.55-0.45,1-1.01,1l0,0C40.569,25.2,40.12,24.75,40.12,24.2z M40.12,20.33
			c0-0.55,0.449-1,1-1l0,0c0.56,0,1.01,0.45,1.01,1l0,0c0,0.56-0.45,1-1.01,1l0,0C40.569,21.33,40.12,20.89,40.12,20.33z
			 M40.12,16.47c0-0.56,0.449-1,1-1l0,0c0.56,0,1.01,0.44,1.01,1l0,0c0,0.55-0.45,1-1.01,1l0,0
			C40.569,17.47,40.12,17.02,40.12,16.47z M40.12,12.6c0-0.55,0.449-1,1-1l0,0c0.56,0,1.01,0.45,1.01,1l0,0c0,0.55-0.45,1-1.01,1
			l0,0C40.569,13.6,40.12,13.15,40.12,12.6z M40.12,8.73c0-0.55,0.449-1,1-1l0,0c0.56,0,1.01,0.45,1.01,1l0,0c0,0.55-0.45,1-1.01,1
			l0,0C40.569,9.73,40.12,9.28,40.12,8.73z M40.12,4.87c0-0.56,0.449-1,1-1l0,0c0.56,0,1.01,0.44,1.01,1l0,0c0,0.55-0.45,1-1.01,1
			l0,0C40.569,5.87,40.12,5.42,40.12,4.87z"/>
		<path style="fill:#556080;" d="M41.13,60c-0.271,0-0.53-0.11-0.71-0.29c-0.19-0.19-0.3-0.45-0.3-0.71c0-0.26,0.109-0.52,0.3-0.71
			c0.37-0.37,1.04-0.37,1.41,0c0.189,0.19,0.29,0.45,0.29,0.71c0,0.26-0.101,0.52-0.29,0.71C41.649,59.89,41.39,60,41.13,60z"/>
		<path style="fill:#556080;" d="M36.439,59c0-0.55,0.45-1,1-1l0,0c0.551,0,1,0.45,1,1l0,0c0,0.55-0.449,1-1,1l0,0
			C36.89,60,36.439,59.55,36.439,59z M32.75,59c0-0.55,0.45-1,1-1l0,0c0.55,0,1,0.45,1,1l0,0c0,0.55-0.45,1-1,1l0,0
			C33.2,60,32.75,59.55,32.75,59z M29.06,59c0-0.55,0.45-1,1-1l0,0c0.55,0,1,0.45,1,1l0,0c0,0.55-0.45,1-1,1l0,0
			C29.51,60,29.06,59.55,29.06,59z M25.38,59c0-0.55,0.439-1,1-1l0,0c0.55,0,0.99,0.45,0.99,1l0,0c0,0.55-0.44,1-0.99,1l0,0
			C25.819,60,25.38,59.55,25.38,59z M21.689,59c0-0.55,0.44-1,1-1l0,0c0.551,0,1,0.45,1,1l0,0c0,0.55-0.449,1-1,1l0,0
			C22.13,60,21.689,59.55,21.689,59z"/>
	</g>
	<g>
		<g>
			<rect x="1" y="19" style="fill:#48A0DC;" width="15" height="22"/>
			<path style="fill:#48A0DC;" d="M17,42H0V18h17V42z M2,40h13V20H2V40z"/>
		</g>
		<g>
			<rect x="44" y="19" style="fill:#48A0DC;" width="15" height="22"/>
			<path style="fill:#48A0DC;" d="M60,42H43V18h17V42z M45,40h13V20H45V40z"/>
		</g>
	</g>
</g>
<g>
</g>
<g>
</g>
<g>
</g>
<g>
</g>
<g>
</g>
<g>
</g>
<g>
</g>
<g>
</g>
<g>
</g>
<g>
</g>
<g>
</g>
<g>
</g>
<g>
</g>
<g>
</g>
<g>
</g>
</svg>
